# xmcd
#
# Track frame offsets: 
#        150
#        16152
#        43262
#        66349
#        85758
#        113549
#        134411
#        158834
#        176824
#
# Disc length: 2675 seconds
#
# Revision: 0
# Processed by: cddbd v1.5.2PL0 Copyright (c) Steve Scherf et al.
# Submitted via: ExactAudioCopyFreeDBPlugin 1.0
#
DISCID=720a7109
DTITLE=Thanh Lam - Giot Lam CD2
DYEAR=1900
DGENRE=
TTITLE0=Hoa sua
TTITLE1=Em oi Ha noi pho
TTITLE2=Chia tay hoang hon
TTITLE3=Dem ho guom
TTITLE4=Khong the va co the
TTITLE5=Nay em co nho
TTITLE6=Goi anh
TTITLE7=Khat vong
TTITLE8=Ho tren nui
EXTD=
EXTT0=
EXTT1=
EXTT2=
EXTT3=
EXTT4=
EXTT5=
EXTT6=
EXTT7=
EXTT8=
PLAYORDER=
